#!OML:ASF E:\acrobat2\Project_11_07_03\Capture day 1\Session 1\Acrobat.ASF
:FULLY-SPECIFIED
:DEGREES
453
root 11.3384 4.67198 10.5872 -80.0589 2.94937 166.452
lowerback -15.6238 -6.75673 -2.33604
upperback -8.3703 -9.519 9.12162
thorax 1.67637 -5.00536 9.34829
lowerneck -4.38857 -16.1621 16.9205
upperneck -33.924 -21.3328 -3.3293
head -13.0196 -9.56778 -1.98506
rclavicle 2.38542e-014 5.11871e-014
rhumerus 24.378 -34.5868 -13.1909
rradius 126.112
rwrist -26.3586
rhand -23.4091 -39.098
rfingers 7.12502
rthumb 3.04802 -69.0559
lclavicle 2.38542e-014 5.11871e-014
lhumerus -1.52915 43.7716 7.50724
lradius 119.642
lwrist 27.9565
lhand -17.6055 -31.6976
lfingers 7.12502
lthumb 8.65108 -1.89489
rfemur 6.07161 0.732333 4.07234
rtibia 45.0234
rfoot 25.7621 -1.6823
rtoes -1.42938
lfemur 2.87831 -8.44537 -1.32902
ltibia 45.4717
lfoot 19.3158 6.07561
ltoes 3.87875
454
root 11.271 4.41197 10.5897 -80.8223 2.88307 167.368
lowerback -15.5053 -6.56302 -2.43875
upperback -7.94013 -9.24024 8.98351
thorax 2.01744 -4.86102 9.29676
lowerneck -4.25634 -16.514 16.4988
upperneck -33.1925 -21.7523 -2.69332
head -12.6275 -9.85147 -1.62651
rclavicle 2.46493e-014 -1.59028e-014
rhumerus 24.0761 -35.5223 -12.5576
rradius 125.631
rwrist -27.3928
rhand -23.9586 -39.1476
rfingers 7.12502
rthumb 2.51736 -69.1125
lclavicle 2.46493e-014 -1.59028e-014
lhumerus -2.52981 44.077 5.41445
lradius 119.202
lwrist 28.1516
lhand -17.739 -32.3312
lfingers 7.12502
lthumb 8.52222 -2.5232
rfemur 4.35819 0.935899 2.10172
rtibia 48.5775
rfoot 29.0958 -5.08269
rtoes 4.97361
lfemur 0.656185 -7.79229 -1.0788
ltibia 49.2603
lfoot 22.7832 5.4355
ltoes 3.80381
455
root 11.2082 4.24304 10.6075 -81.657 2.88301 168.16
lowerback -15.1141 -6.33135 -2.29174
upperback -7.50138 -8.92084 8.73533
thorax 2.16397 -4.68918 9.01915
lowerneck -4.11577 -16.9024 15.6396
upperneck -32.3066 -22.1953 -1.89665
head -12.0911 -10.1194 -1.18098
rclavicle -9.85972e-014 1.8487e-014
rhumerus 24.0534 -35.7504 -12.6003
rradius 124.987
rwrist -27.4564
rhand -24.2516 -39.2573
rfingers 7.12502
rthumb 2.2344 -69.2253
lclavicle -9.85972e-014 1.8487e-014
lhumerus -2.8002 43.8689 3.9948
lradius 118.657
lwrist 28.3649
lhand -17.3315 -32.3485
lfingers 7.12502
lthumb 8.91548 -2.55687
rfemur 2.87398 2.03774 0.354976
rtibia 51.2993
rfoot 32.4208 -10.9052
rtoes 16.997
lfemur -1.98093 -7.40314 -0.823093
ltibia 52.8556
lfoot 27.2714 5.01113
ltoes 3.9976
456
root 11.1529 4.15172 10.6304 -82.5439 2.91446 168.791
lowerback -14.488 -6.09942 -1.97531
upperback -7.06315 -8.60231 8.4087
thorax 2.15241 -4.51087 8.58115
lowerneck -4.01211 -17.3378 14.4536
upperneck -31.231 -22.6855 -0.944497
head -11.414 -10.4028 -0.675996
rclavicle 2.38542e-015 -1.58034e-014
rhumerus 24.2099 -35.451 -13.0989
rradius 124.244
rwrist -26.8527
rhand -24.2652 -39.4631
rfingers 7.12502
rthumb 2.22128 -69.4313
lclavicle 2.38542e-015 -1.58034e-014
lhumerus -2.43494 43.3966 3.23374
lradius 118.133
lwrist 28.728
lhand -16.4854 -31.8374
lfingers 7.12502
lthumb 9.73185 -2.08222
rfemur 1.91509 4.22567 -0.970878
rtibia 52.7703
rfoot 35.0587 -18.841
rtoes 31.7984
lfemur -4.78501 -7.42127 -0.578844
ltibia 55.7581
lfoot 32.7325 4.89713
ltoes 4.47688
457
root 11.107 4.12418 10.6506 -83.4657 2.93837 169.264
lowerback -13.6857 -5.89343 -1.57302
upperback -6.62464 -8.31195 8.03728
thorax 2.03636 -4.34188 8.0559
lowerneck -3.96074 -17.817 13.0524
upperneck -29.9601 -23.2248 0.151996
head -10.6165 -10.7182 -0.141188
rclavicle 8.18993e-014 2.15681e-014
rhumerus 24.4565 -34.8062 -13.8466
rradius 123.437
rwrist -25.8732
rhand -24.0652 -39.7537
rfingers 7.12502
rthumb 2.41437 -69.7198
lclavicle 8.18993e-014 2.15681e-014
lhumerus -1.59056 42.8185 3.00373
lradius 117.667
lwrist 29.2529
lhand -15.3918 -31.0482
lfingers 7.12502
lthumb 10.7868 -1.3452
rfemur 1.7438 7.56211 -1.73898
rtibia 52.7144
rfoot 36.5523 -27.6877
rtoes 44.1284
lfemur -7.45958 -7.93338 -0.353426
ltibia 57.5168
lfoot 38.8825 4.93433
ltoes 4.95953
458
root 11.0721 4.15044 10.6689 -84.4057 2.92136 169.623
lowerback -12.775 -5.71973 -1.1508
upperback -6.18255 -8.05571 7.65211
thorax 1.86851 -4.18807 7.50808
lowerneck -3.9308 -18.3156 11.5272
upperneck -28.5323 -23.7848 1.36805
head -9.7387 -11.0589 0.396642
rclavicle -3.18055e-015 -4.77083e-014
rhumerus 24.7365 -33.9718 -14.6869
rradius 122.578
rwrist -24.7483
rhand -23.7797 -40.0792
rfingers 7.12502
rthumb 2.69012 -70.0419
lclavicle -3.18055e-015 -4.77083e-014
lhumerus -0.446148 42.2167 3.13443
lradius 117.251
lwrist 29.8852
lhand -14.2159 -30.2499
lfingers 7.12502
lthumb 11.9209 -0.609268
rfemur 2.49754 11.9121 -1.90702
rtibia 51.1138
rfoot 36.5519 -36.062
rtoes 52.3539
lfemur -9.72731 -8.93533 -0.123756
ltibia 57.8442
lfoot 45.1366 4.67861
ltoes 5.00276
459
root 11.0499 4.22278 10.693 -85.3482 2.90198 169.947
lowerback -11.8184 -5.57221 -0.820142
upperback -5.73077 -7.81924 7.26124
thorax 1.70056 -4.04392 7.00628
lowerneck -3.83744 -18.7891 9.92138
upperneck -27.0597 -24.3031 2.70348
head -8.84092 -11.3929 0.935096
rclavicle -9.22361e-014 2.3059e-014
rhumerus 25.0178 -33.0593 -15.5287
rradius 121.677
rwrist -23.6481
rhand -23.5971 -40.3769
rfingers 7.12502
rthumb 2.86644 -70.3374
lclavicle -9.22361e-014 2.3059e-014
lhumerus 0.844614 41.6357 3.47803
lradius 116.883
lwrist 30.6085
lhand -13.015 -29.5934
lfingers 7.12502
lthumb 13.0787 -0.0234827
rfemur 4.15713 17.0914 -1.58074
rtibia 48.1825
rfoot 35.0275 -43.0624
rtoes 57.5124
lfemur -11.385 -10.3912 0.0895765
ltibia 56.6314
lfoot 51.0341 3.38998
ltoes 4.39477
460
root 11.0389 4.3284 10.7282 -86.2778 2.85001 170.332
lowerback -10.8812 -5.42069 -0.567258
upperback -5.2732 -7.57351 6.88971
thorax 1.56065 -3.8977 6.56762
lowerneck -3.57411 -19.1789 8.24545
upperneck -25.6575 -24.703 4.15289
head -7.97882 -11.6786 1.48413
rclavicle -3.18055e-015 7.2457e-014
rhumerus 25.3069 -32.1241 -16.3346
rradius 120.734
rwrist -22.5949
rhand -23.5814 -40.6148
rfingers 7.12502
rthumb 2.8816 -70.575
lclavicle -3.18055e-015 7.2457e-014
lhumerus 2.15245 41.0669 3.92332
lradius 116.541
lwrist 31.235
lhand -11.8833 -29.15
lfingers 7.12502
lthumb 14.1694 0.346807
rfemur 6.46637 22.4642 -0.899416
rtibia 44.3696
rfoot 30.9331 -48.0252
rtoes 60.4414
lfemur -12.299 -12.0739 0.329831
ltibia 53.9988
lfoot 55.3402 0.394295
ltoes 2.44477
461
root 11.0358 4.45753 10.7836 -87.1865 2.72737 170.822
lowerback -9.99681 -5.24699 -0.329097
upperback -4.8251 -7.30539 6.56147
thorax 1.44485 -3.7445 6.18042
lowerneck -3.08168 -19.4331 6.47522
upperneck -24.3855 -24.9231 5.70585
head -7.17706 -11.8817 2.0572
rclavicle -6.67916e-014 1.12313e-014
rhumerus 25.6315 -31.1832 -17.096
rradius 119.739
rwrist -21.5394
rhand -23.6844 -40.7961
rfingers 7.12502
rthumb 2.78218 -70.7577
lclavicle -6.67916e-014 1.12313e-014
lhumerus 3.38888 40.4812 4.39052
lradius 116.195
lwrist 31.6093
lhand -10.8938 -28.9279
lfingers 7.12502
lthumb 15.1228 0.499553
rfemur 9.10577 27.3899 -0.0314144
rtibia 40.1474
rfoot 23.436 -50.6311
rtoes 61.847
lfemur -12.4469 -13.9133 0.673895
ltibia 50.2365
lfoot 56.9639 -3.31809
ltoes 2.32568
462
root 11.0353 4.60116 10.8635 -88.1104 2.54796 171.448
lowerback -9.13738 -5.04143 -0.0765964
upperback -4.39003 -7.00349 6.28705
thorax 1.33166 -3.57835 5.84213
lowerneck -2.35644 -19.5059 4.5593
upperneck -23.2619 -24.9114 7.36243
head -6.43647 -11.9738 2.67071
rclavicle 0 -1.86858e-014
rhumerus 26.0445 -30.2396 -17.8269
rradius 118.689
rwrist -20.3873
rhand -23.7708 -40.9533
rfingers 7.12502
rthumb 2.69869 -70.916
lclavicle 0 -1.86858e-014
lhumerus 4.48998 39.8573 4.83181
lradius 115.807
lwrist 31.5921
lhand -10.1218 -28.9092
lfingers 7.12502
lthumb 15.8663 0.460697
rfemur 11.7332 31.3103 0.787273
rtibia 35.9598
rfoot 12.7273 -50.5466
rtoes 62.1015
lfemur -11.8401 -15.9269 1.10093
ltibia 45.7616
lfoot 55.2468 -6.27101
ltoes 7.66219
